<?xml version="1.0" encoding="utf-8"?>
<!-- Generator: Adobe Illustrator 27.2.0, SVG Export Plug-In . SVG Version: 6.00 Build 0)  -->
<svg version="1.1" id="Layer_1" xmlns="http://www.w3.org/2000/svg" xmlns:xlink="http://www.w3.org/1999/xlink" x="0px" y="0px"
	 viewBox="0 0 800 800" style="enable-background:new 0 0 800 800;" xml:space="preserve">
<style type="text/css">
	.st0{fill:#C9B8A9;stroke:#42565F;stroke-width:25;stroke-linecap:round;stroke-linejoin:round;stroke-miterlimit:50;}
	.st1{fill:#42565F;stroke:#000000;stroke-width:12.5;stroke-miterlimit:50;}
	.st2{fill:#AEA298;stroke:#42565F;stroke-width:25;stroke-linecap:round;stroke-linejoin:round;stroke-miterlimit:50;}
	.st3{fill:none;stroke:#42565F;stroke-width:25;stroke-linejoin:round;stroke-miterlimit:50;}
	.st4{fill:none;stroke:#757575;stroke-width:25;stroke-linecap:round;stroke-linejoin:round;stroke-miterlimit:50;}
</style>
<g id="SVGRepo_bgCarrier">
</g>
<g id="SVGRepo_tracerCarrier">
</g>
<rect x="237.5" y="62.5" class="st0" width="450" height="525"/>
<path class="st0" d="M62.5,150v537.5c0,48.3,78.3,87.5,175,87.5s175-39.2,175-87.5V150H62.5z"/>
<ellipse class="st0" cx="237.5" cy="150" rx="175" ry="87.5"/>
<ellipse class="st1" cx="237.5" cy="137.5" rx="75" ry="37.5"/>
<rect x="687.5" y="62.5" class="st2" width="62.5" height="525"/>
<line class="st3" x1="750" y1="87.5" x2="687.5" y2="112.5"/>
<line class="st3" x1="750" y1="150" x2="687.5" y2="175"/>
<line class="st3" x1="750" y1="212.5" x2="687.5" y2="237.5"/>
<line class="st3" x1="750" y1="275" x2="687.5" y2="300"/>
<line class="st3" x1="750" y1="337.5" x2="687.5" y2="362.5"/>
<line class="st3" x1="750" y1="400" x2="687.5" y2="425"/>
<line class="st3" x1="750" y1="462.5" x2="687.5" y2="487.5"/>
<line class="st3" x1="750" y1="525" x2="687.5" y2="550"/>
<path class="st4" d="M137.5,262.5c20.7,0,37.5,16.8,37.5,37.5s-16.8,37.5-37.5,37.5c20.7,0,37.5,16.8,37.5,37.5
	s-16.8,37.5-37.5,37.5c20.7,0,37.5,16.8,37.5,37.5s-16.8,37.5-37.5,37.5c20.7,0,37.5,16.8,37.5,37.5c0,20.7-16.8,37.5-37.5,37.5
	c20.7,0,37.5,16.8,37.5,37.5s-16.8,37.5-37.5,37.5c20.7,0,37.5,16.8,37.5,37.5s-16.8,37.5-37.5,37.5"/>
<path class="st4" d="M225,262.5c20.7,0,37.5,16.8,37.5,37.5s-16.8,37.5-37.5,37.5c20.7,0,37.5,16.8,37.5,37.5s-16.8,37.5-37.5,37.5
	c20.7,0,37.5,16.8,37.5,37.5s-16.8,37.5-37.5,37.5c20.7,0,37.5,16.8,37.5,37.5c0,20.7-16.8,37.5-37.5,37.5
	c20.7,0,37.5,16.8,37.5,37.5s-16.8,37.5-37.5,37.5c20.7,0,37.5,16.8,37.5,37.5s-16.8,37.5-37.5,37.5"/>
<path class="st4" d="M312.5,262.5c20.7,0,37.5,16.8,37.5,37.5s-16.8,37.5-37.5,37.5c20.7,0,37.5,16.8,37.5,37.5
	s-16.8,37.5-37.5,37.5c20.7,0,37.5,16.8,37.5,37.5s-16.8,37.5-37.5,37.5c20.7,0,37.5,16.8,37.5,37.5c0,20.7-16.8,37.5-37.5,37.5
	c20.7,0,37.5,16.8,37.5,37.5s-16.8,37.5-37.5,37.5c20.7,0,37.5,16.8,37.5,37.5s-16.8,37.5-37.5,37.5"/>
<path class="st4" d="M500,100c-20.7,0-37.5,16.8-37.5,37.5S479.3,175,500,175c-20.7,0-37.5,16.8-37.5,37.5S479.3,250,500,250
	c-20.7,0-37.5,16.8-37.5,37.5S479.3,325,500,325c-20.7,0-37.5,16.8-37.5,37.5S479.3,400,500,400c-20.7,0-37.5,16.8-37.5,37.5
	S479.3,475,500,475c-20.7,0-37.5,16.8-37.5,37.5c0,20.7,16.8,37.5,37.5,37.5"/>
<path class="st4" d="M575,100c-20.7,0-37.5,16.8-37.5,37.5S554.3,175,575,175c-20.7,0-37.5,16.8-37.5,37.5S554.3,250,575,250
	c-20.7,0-37.5,16.8-37.5,37.5S554.3,325,575,325c-20.7,0-37.5,16.8-37.5,37.5S554.3,400,575,400c-20.7,0-37.5,16.8-37.5,37.5
	S554.3,475,575,475c-20.7,0-37.5,16.8-37.5,37.5c0,20.7,16.8,37.5,37.5,37.5"/>
<path class="st4" d="M650,100c-20.7,0-37.5,16.8-37.5,37.5S629.3,175,650,175c-20.7,0-37.5,16.8-37.5,37.5S629.3,250,650,250
	c-20.7,0-37.5,16.8-37.5,37.5S629.3,325,650,325c-20.7,0-37.5,16.8-37.5,37.5S629.3,400,650,400c-20.7,0-37.5,16.8-37.5,37.5
	S629.3,475,650,475c-20.7,0-37.5,16.8-37.5,37.5c0,20.7,16.8,37.5,37.5,37.5"/>
</svg>
